<svg width="266" height="169" viewBox="0 0 266 169" fill="none" xmlns="http://www.w3.org/2000/svg">
<path d="M44.2531 68.7601C47.4007 31.0133 137.392 13.5654 181.994 9.55977C295.162 34.32 209.926 84.0022 202.558 98.5784C195.189 113.155 90.8043 142.966 61.2409 130.887C31.6774 118.807 40.3186 115.944 44.2531 68.7601Z" fill="#79A28E"/>
<path d="M254.684 21.4518C249.265 13.1141 240.418 10.874 231.392 8.95349C226.406 7.89262 221.77 5.4607 216.848 4.29502C210.658 2.8288 203.156 2.55062 196.794 2.0794C191.338 1.67523 185.41 1 179.978 1C152.233 1 125.892 12.3502 99.7048 20.7701C86.2326 25.1019 79.256 26.8758 70.6178 35.7681C66.5572 39.9481 64.1513 44.6801 61.3577 49.7435C51.0552 68.4167 49.1434 87.1989 49.1434 108.145C49.1434 122.878 56.8029 140.901 73.572 143.367C87.4352 145.406 101.837 145.185 115.839 145.185C121.406 145.185 126.974 145.185 132.541 145.185C137.332 145.185 141.296 141.766 146.119 140.641C156.545 138.208 170.947 131.042 178.785 123.938C182.228 120.818 187.649 119 190.488 115.53C194.173 111.027 197.082 106.511 200.487 101.782C207.05 92.6671 212.256 82.5033 219.121 73.604C225.727 65.0409 230.931 54.7034 237.868 46.5053C244.111 39.128 251.544 31.4429 259.57 25.9967C260.339 25.4751 265.069 20.9564 264.683 20.6565C263.997 20.123 258.426 22.2678 257.241 22.5312C254.656 23.1056 252.712 23.497 249.912 23.497C244.929 23.497 240.588 25.5422 235.766 25.5422C230.808 25.5422 226.742 26.1893 222.075 28.0987C216.537 30.3641 211.175 31.2289 205.6 33.1548C190.167 38.4861 176.203 45.9545 161.288 52.6409C158.673 53.8127 157.037 56.2677 154.357 57.2425C151.031 58.4518 148.197 59.9526 145.21 61.8442C137.16 66.9429 127.543 69.5158 119.589 74.5129C112.312 79.0842 103.826 81.7082 96.6371 86.3296C90.5448 90.246 84.1621 94.8256 77.5487 97.9189C69.6415 101.617 63.1066 107.348 55.6198 111.667C48.8708 115.561 42.129 118.987 35.9065 123.654C28.1281 129.488 19.5235 135.139 13.5799 143.14C11.6838 145.693 11.305 148.733 9.03509 151.094C6.7058 153.516 3.98199 155.398 3.18359 158.99C2.56193 161.788 0.443104 163.929 1.13841 167.057C1.42606 168.352 5.65089 156.599 6.7402 155.752C10.7818 152.609 13.8175 146.388 18 143.367C23 134.182 25.6143 135.045 31.5 130C33.4572 128.322 35.5141 124.896 36.9291 122.632C39.0954 119.166 43.0426 115.779 46.4165 113.485C52.9222 109.061 57.0629 105.207 61.3577 97.6917C65.225 90.9238 66.6244 83.0218 70.6178 76.4445C75.7603 67.9745 77.3009 57.7748 83.3434 50.0844C86.0349 46.6589 88.0589 42.7761 90.6151 39.2904C93.1655 35.8126 96.6518 34.5537 100.046 32.2458C100.278 32.0878 105.954 28.8968 105.954 29.6326C105.954 30.9697 101.574 32.8329 100.841 34.1774C98.9207 37.6981 96.8948 40.1799 95.3872 43.9488C93.6386 48.3205 92.5038 53.5036 91.1264 58.0947C88.9407 65.3803 88.7012 73.374 85.3886 80.194C82.3584 86.4326 80.8479 94.0516 75.7308 99.1688C72.3398 102.56 75.2242 101.21 77.2646 99.6232C79.6563 97.7631 80.1304 98.1462 83.7411 98.1462C96.9779 98.1462 110.215 98.1462 123.452 98.1462C125.547 98.1462 133.813 97.5071 137.2 98.2598C143.897 99.7479 149.436 100.388 156.515 100.191C159.577 100.106 164.234 98.6989 166.741 96.8963C170.368 94.2895 162.618 102.27 161.628 103.259C158.228 106.66 156.117 109.077 151.459 110.474C148.889 111.245 147.099 113.148 144.301 113.428C141.298 113.729 138.487 113.651 135.496 114.28C117.408 118.088 98.0606 114.508 79.8779 114.508C73.0449 114.508 63.7347 111.589 57.0969 109.622C55.5698 109.169 48.0665 110.472 51.1886 107.349C53.5671 104.971 58.208 103.66 61.4145 103.202C64.9035 102.704 68.2309 100.627 71.6404 99.6801C76.5195 98.3248 82.8215 97.1704 86.9793 94.283C90.7085 91.6933 94.6489 89.3913 98.455 86.8977C101.159 85.1263 106.797 81.685 108.51 79.1146C112.947 72.4604 124.637 68.2202 132.201 66.6731C144.561 64.1447 155.467 62.3555 168.218 62.3555C175.074 62.3555 181.929 62.3555 188.784 62.3555C193.013 62.3555 197.343 62.5802 201.566 62.2987C206.555 61.9661 210.951 59.0724 215.599 57.4698C217.199 56.918 221.64 54.8537 221.507 52.584C221.354 49.9901 212.965 57.582 212.701 57.7538C205.255 62.5935 197.719 68.4145 189.466 71.5588C185.253 73.1636 180.855 72.2932 176.513 73.604C171.808 75.0243 166.943 74.6266 162.083 74.6266C153.58 74.6266 145.078 74.6266 136.575 74.6266C131.39 74.6266 127.158 76.0933 122.202 76.6149C119.979 76.849 117.719 76.4818 115.498 76.7286C112.981 77.0082 110.969 78.643 108.454 78.7169C106.22 78.7826 104.211 80.583 104.363 77.6943C104.579 73.6024 107.969 70.1614 110.044 66.9003C114.182 60.399 119.95 54.9494 125.383 49.5163C127.987 46.9124 130.298 44.7589 132.541 41.9036C135.421 38.2384 140.652 36.4972 143.222 32.9276C145.467 29.8095 149.608 28.5476 151.971 25.3149C153.772 22.8501 156.166 20.8047 159.072 19.4635C167.02 15.7951 173.584 15.3163 182.307 15.3163C185.559 15.3163 187.731 13.386 190.488 13.2711C192.584 13.1838 185.743 14.7269 184.125 15.998C180.876 18.5514 178.178 21.2519 173.9 22.4744C168.456 24.0298 163.906 29.9244 159.015 32.7003C154.492 35.2674 146.157 42.3771 145.21 47.5847C144.577 51.0643 142.493 60.6009 140.154 62.3555" stroke="black" stroke-width="2" stroke-linecap="round" stroke-linejoin="round"/>
</svg>
