<svg width="342" height="220" viewBox="0 0 342 220" fill="none" xmlns="http://www.w3.org/2000/svg">
<path d="M297.935 64.6519C379.37 116.611 327.935 133.819 297.935 128.152C227.435 102.652 199.435 92.1518 171.435 92.1518C154.602 98.6518 125.035 90.2165 79.435 74.6165C33.835 59.0165 20.9351 21.6162 31.4351 11.1162C79.435 4.11625 216.435 12.6515 297.935 64.6519Z" fill="#B7C8A1"/>
<path d="M207.923 164.145C180.134 187.157 81.1065 141.79 55.0854 126.861C-20.379 43.9307 58.778 33.1878 123.298 65.6366C148.386 74.3192 235.711 141.133 207.923 164.145Z" fill="#728172" fill-opacity="0.85"/>
<path d="M1.5 28.5C4.0487 30.3105 5.4916 33.9143 14 38C14.862 38.6011 16.7263 40.0554 18 40.5C18.6421 40.7241 20.3063 41.446 21 41.5C22.1996 41.5934 23.0602 42.3632 24.1489 42.7935C25.6199 43.375 28.0236 43.4549 29.5 44C32.9445 45.2717 35.3791 46.1138 39 46.5C42.5 46.5 47.5 45.7921 50.325 45.8538C51.7874 45.8857 53.0516 46.7144 54.6337 46.7144C55.9061 46.7144 57.0766 47.0608 58.3447 47.1448C59.845 47.2441 61.0502 48.0055 62.6285 48.0055C63.8022 48.0055 64.5642 48.182 65.6421 48.4119C67.4507 48.7977 69.6426 49.2965 71.4701 49.2965C72.5443 49.2965 75.0843 48.9059 76 49.2965C78 49.2965 80.2142 49.5407 81.5 50C85.0484 51.2674 86.7775 51.9393 90.2242 53.5C94.907 55.6204 100 57.7121 103.3 60.0551C108.33 61.8824 113.461 63.6931 118.343 65.8409C123.608 68.1573 128.998 70.4791 134.607 72.0092C140.64 73.6553 146.333 76.4143 152.29 78.1296C157.688 79.6842 163.275 82.4314 168.379 84.8239C171.868 86.4597 175.058 88.2063 178.74 89.4142C181.55 90.3363 184.541 91.4942 187.183 92.8092C201.351 99.8613 218.51 102.146 233.5 107.5C241.793 110.462 250.421 113.026 259 115C261.906 115.669 265 116.348 267.5 117.5C269.644 117.986 271.324 119.115 273.5 119.5C276.681 120.063 279.137 121.931 282.348 122C285 122.5 287.385 123.746 290.468 123.746C295.18 123.746 288.106 119.186 287.105 118.152C286.161 117.176 283.687 116.311 282.348 115.785C280.029 114.874 277.58 114.162 275.225 113.322C272.076 112.199 268.715 111.046 265.487 110.214C261.383 109.157 257.545 107.412 253.408 106.437C249.296 105.467 245.386 104.161 241.254 103.329C237.677 102.608 234.031 101.692 230.594 100.508C222.012 97.5502 212.898 96.5466 204.368 93.3829C196.461 90.4502 188.445 88.0735 180.384 85.4455C164.953 80.4148 149.443 75.5083 133.859 70.8138C120.369 66.7498 111.654 64.1547 98.7918 60.3898C95.9501 59.5581 92.9664 58.8722 90.2242 57.7121C87.7478 56.6646 85.3631 55.6355 82.8022 54.7954C79.2884 53.6426 75.5724 52.2088 72.1674 50.7788C69.4731 49.6473 66.6585 48.8079 63.8489 47.8142C58.765 46.0162 54.8254 42.1822 54.6586 36.5774C54.4954 31.0938 56.7762 25.0182 61.7817 21.7545C74.5346 13.4391 91.4477 14.0082 106.164 14.0082C110.882 14.0082 114.436 17.3421 116.674 20.9416C118 24.1453 116.5 34.272 116.5 37.5C116.5 39.7581 118.343 43.5 116.5 46C115.76 46.4735 114 48.0717 114 44.3954C114 42 113.835 42 114.5 40.5C117.181 34.4523 124.5 25.5526 124.5 18.7181C124.5 18.0168 124 15.2987 124 16C126 16.5 126.135 17 127.5 17C130.5 17.5 130.92 17.451 133.013 17.451C137.388 17.451 141.763 17.451 146.138 17.451C149.683 17.451 153.228 17.451 156.773 17.451C159.358 17.451 163.5 18 165.589 18.7181C167.679 19.4363 171 19 168.279 23.6671C167.327 25.8875 163.5 34.9895 163.5 37.5C163 41.1835 163 42 163.5 44.3954M163.5 44.3954C163.5 47.571 163.914 49.7176 163 52.7871C162.52 54.3988 160.669 56.0258 160 55.5C157.461 53.506 160 50.5 161 48.5C161.471 47.5575 162.804 46.1034 163.5 44.3954ZM163.5 44.3954C164.214 42.6437 164.821 40.4669 166 39C167.094 37.6383 168.966 34.4986 169.649 32.8956C170.378 31.185 171 29.5 172.015 27.4446C172.942 26.4483 173.118 25.376 173.485 24.1453C173.979 22.4847 188.214 28.0765 189.051 28.3531C194.058 30.0084 197.988 33.232 202.948 35.0951C206.739 36.5192 210.452 36.8165 214.48 36.8165C217.474 36.8165 215.908 41.3252 215.401 43.2717C214.063 48.4093 212.036 53.2568 208.776 57.5687C207.367 59.4327 204.169 62.0466 202.948 64C202.184 65.2233 206.603 61.4525 207.78 60.5811C210.841 58.3144 212.621 55.494 215.127 52.7871C216.133 51.7005 216.798 50.2709 217.5 49C218.282 47.586 219.124 45.7514 219.884 44.3954C220.775 42.8067 222.5 39.5 224 41.5C226.5 42.5 226.5 42.2717 229 43.2717C232 44.1671 233.765 44.5 237 44.5C239.034 44.5 241.466 45 243.5 45C247.113 45 250.276 46.1697 253.806 46.6188C258.574 47.2254 276 53 277 56.5C277.276 57.4649 276.5 61 275 65.5C273.5 68 272.5 69.5 271.689 70.3595C274.5 70.5 276.904 68.5365 279 68C282.522 67.0985 285.801 66.9407 289.571 66.9407C290.991 66.9407 291.58 66.9407 293 66.9407C293.67 66.9407 295.608 67.9345 297 68.5C298.392 69.0655 301.677 72.7674 302.5 74C303.262 74.6267 304.412 76.2101 305 77C306.197 78.609 307.167 79.1716 308 81C308.415 81.9103 309.487 82.8573 309.745 83.7241C310.119 84.9818 311.135 86.5155 311.887 87.5972C313.622 90.0955 313.548 94 316.121 96.6344C321.849 102.5 321.849 109.5 321.849 117.96C321.754 121.248 318.506 126.015 316.121 128C313.223 130.41 310.484 132.868 307.254 134.935C301.82 138.412 295.399 139.98 289.571 142.777C286.444 144.278 283.691 144.16 280.5 145.5C279.115 146.082 276.719 146.65 275.325 147.08C274.348 147.382 271.107 148.348 270 148.5C267.819 148.799 267.5 149 265.163 149.758C263.627 150.413 262.701 150.5 261 150.5C259.799 150.5 258.237 150.812 257 150.858C254.202 150.961 251.935 152.149 249.024 152.149C245.099 152.149 243.808 149 242 147.08C241.254 146.315 239.938 145.137 239 143.5C238.062 141.863 237.524 141.12 236.5 139.5C236.129 138.914 234.968 137.77 234.38 137.326C233.92 136.979 233.789 136.986 233.5 136.5C233.395 136.323 232.546 136.187 232.387 136.035C231.715 135.39 232.081 137.85 232.138 138.76C232.375 142.524 233 146.728 233 150.5C232.552 153.407 219.027 151.469 215.874 150.236C212.699 148.994 209.5 148.127 206.211 146.746C204.128 145.871 200.893 145.711 199 144.5C198.246 144.018 196.325 143.327 195.427 143.183C193.546 142.883 193.535 140.693 192.961 139.143C192.413 137.664 192.387 135.558 192 134C191.544 132.162 191.782 130.854 190.944 129.149C190.325 127.892 190.165 125.833 189.15 124.798C188.632 124.269 188.702 128.029 188.702 128.432C188.702 130.537 189.15 132.727 189.15 134.911C189.15 137.071 189.15 139.231 189.15 141.39C189.15 143.845 184.695 141.341 183.571 141.056C180.056 140.162 176.861 139.016 173.553 137.517C170.201 135.998 166.815 134.686 163.417 133.381C159.72 131.962 155.835 130.936 152.209 129.293C150.993 128.741 149.311 128.872 148 128.432C145.484 127.587 142.192 126.836 139.557 126.519C135.782 126.067 131.979 125.001 128.25 124.153C125.972 123.635 124.18 122.32 121.973 121.69C120.573 121.29 118.746 121.224 117.397 120.064C114.599 118.889 110.249 119.468 110.249 115.665C110.249 113.45 110.249 111.234 110.249 109.019C110.249 99.9497 109 91.5691 109 82.5C109 80.219 108 75.1411 106.214 75.1411C105.5 75.1411 104.421 83.4737 104.421 85.3977C104.421 92.1557 104.421 98.9137 104.421 105.672C104.421 108.227 103.941 110.326 103.549 112.772C103.351 114.007 102.279 117.393 101.033 117.937C95 117.96 86.5147 115.843 81 113.322C78.1185 112.005 69.6414 109.491 69.5 106.437C68.6034 104.572 70 102.5 70.5 100.5C71.4701 99 72 98 73 96.5C73 94.5348 77.9989 90.2544 76.3765 88.697C76.3765 88 73 91.5 72 92.5C71 93.5 67.4353 95.894 65.6421 98.5C64.4908 100.173 60.0247 101.867 58.4941 102.181C55.1091 102.876 54.3745 102.539 53.6624 99.7425C52.3848 94.7255 50.325 88.9368 50.325 83.7241C48.6812 76.5995 47.459 70.4802 54.6337 65.8887" stroke="black" stroke-width="2" stroke-linecap="round" stroke-linejoin="round"/>
</svg>
