<?xml version="1.0" encoding="UTF-8" standalone="no"?>
<svg
   xmlns:dc="http://purl.org/dc/elements/1.1/"
   xmlns:cc="http://creativecommons.org/ns#"
   xmlns:rdf="http://www.w3.org/1999/02/22-rdf-syntax-ns#"
   xmlns:svg="http://www.w3.org/2000/svg"
   xmlns="http://www.w3.org/2000/svg"
   xmlns:sodipodi="http://sodipodi.sourceforge.net/DTD/sodipodi-0.dtd"
   xmlns:inkscape="http://www.inkscape.org/namespaces/inkscape"
   width="2560"
   height="1440"
   viewBox="0 0 677.3248 380.9952"
   version="1.1"
   id="svg8"
   inkscape:version="1.0.1 (3bc2e813f5, 2020-09-07)"
   sodipodi:docname="education.svg">
  <defs
     id="defs2" />
  <sodipodi:namedview
     id="base"
     pagecolor="#ffffff"
     bordercolor="#666666"
     borderopacity="1.0"
     inkscape:pageopacity="0.0"
     inkscape:pageshadow="2"
     inkscape:zoom="0.25"
     inkscape:cx="671.79546"
     inkscape:cy="914.05591"
     inkscape:document-units="px"
     inkscape:current-layer="layer3"
     inkscape:document-rotation="0"
     showgrid="false"
     units="px"
     inkscape:snap-page="true"
     inkscape:window-width="1920"
     inkscape:window-height="1001"
     inkscape:window-x="-9"
     inkscape:window-y="-9"
     inkscape:window-maximized="1"
     scale-x="0.26458" />
  <metadata
     id="metadata5">
    <rdf:RDF>
      <cc:Work
         rdf:about="">
        <dc:format>image/svg+xml</dc:format>
        <dc:type
           rdf:resource="http://purl.org/dc/dcmitype/StillImage" />
        <dc:title></dc:title>
      </cc:Work>
    </rdf:RDF>
  </metadata>
  <g
     inkscape:label="Layer 1"
     inkscape:groupmode="layer"
     id="layer1"
     style="display:none"
     sodipodi:insensitive="true">
    <rect
       style="fill:#98c2c5;fill-opacity:1;fill-rule:evenodd;stroke:none;stroke-width:1.43246;stroke-linecap:round;stroke-linejoin:round"
       id="rect1402"
       width="454.79187"
       height="380.99521"
       x="9.8608677e-07"
       y="0" />
    <rect
       style="fill:#d36464;fill-opacity:1;fill-rule:evenodd;stroke:none;stroke-width:1.47633;stroke-linecap:round;stroke-linejoin:round"
       id="rect1404"
       width="238.99651"
       height="380.99521"
       x="438.32828"
       y="0"
       inkscape:export-xdpi="96"
       inkscape:export-ydpi="96" />
  </g>
  <g
     inkscape:groupmode="layer"
     id="layer2"
     inkscape:label="Layer 2"
     style="display:none"
     sodipodi:insensitive="true">
    <path
       style="fill:#ccc86f;fill-opacity:1;stroke:none;stroke-width:0.6477px;stroke-linecap:butt;stroke-linejoin:miter;stroke-opacity:1"
       d="m -214.07555,96.402038 c 0,0 -6.86357,42.569912 18.8071,43.584842 25.67066,1.01494 12.60393,24.84832 50.04542,13.70422 37.44151,-11.1441 48.091483,-16.44285 56.313223,-36.44755 8.22175,-20.004742 10.1528,-56.338972 -5.1079,-63.242272 -15.260683,-6.903301 -40.107033,-32.987384 -60.308653,-21.439498 -20.20161,11.547891 -52.88295,-7.56547 -59.74919,63.840258 z"
       id="path852"
       inkscape:export-xdpi="96"
       inkscape:export-ydpi="96" />
  </g>
  <g
     inkscape:groupmode="layer"
     id="layer3"
     inkscape:label="Layer 3"
     style="display:inline">
    <g
       id="g2308">
      <path
         style="fill:#ccc86f;fill-opacity:1;stroke:none;stroke-width:1.10594;stroke-linecap:butt;stroke-linejoin:miter;stroke-miterlimit:4;stroke-dasharray:none;stroke-opacity:1"
         d="m 0,246.56574 v -26.13783 c 0,0 32.086217,16.54266 82.084119,10.00912 33.853881,-4.4239 50.117191,-10.14162 90.035291,-10.00911 93.45379,0.3102 84.61982,9.87761 127.21869,12.72186 73.35991,4.89811 80.70736,-13.77183 170.62271,-2.99338 88.52543,10.61184 110.00677,2.24504 110.00677,2.24504 0,0 29.63198,-8.98015 97.35722,-11.59936 v 26.08104"
         id="path2263"
         sodipodi:nodetypes="csssscc" />
      <path
         style="fill:#ccc86f;fill-opacity:1;stroke:none;stroke-width:1.10594;stroke-linecap:butt;stroke-linejoin:miter;stroke-miterlimit:4;stroke-dasharray:none;stroke-opacity:1"
         d="M 0,235.20485 0.37417263,380.24668 C 24.235363,368.71527 66.408137,377.93539 97.731393,379.76207 c 40.707127,2.37393 81.375217,-6.15122 122.177457,-6.39273 43.16402,-0.25549 86.18532,5.59982 129.34821,5.23211 52.22464,-0.44491 104.10728,-9.94741 156.3225,-8.99556 30.18967,0.55034 61.33318,16.44815 90.03528,8.48993 34.44273,-9.54992 82.08413,3.18001 82.08413,3.18001 l -0.37417,-145.7536"
         id="path2263-2"
         sodipodi:nodetypes="ccsaaaccc" />
    </g>
    <path
       id="rect2292"
       style="fill:#d3d3c1;fill-opacity:1;fill-rule:evenodd;stroke:none;stroke-width:0.736553;stroke-linecap:round;stroke-linejoin:round;stroke-miterlimit:4;stroke-dasharray:none;stroke-opacity:1"
       d="m 0,153.88301 h 677.32483 v 23.70572 H 0 Z" />
  </g>
</svg>
