<?xml version="1.0" encoding="UTF-8" standalone="no"?>
<svg
   xmlns:dc="http://purl.org/dc/elements/1.1/"
   xmlns:cc="http://creativecommons.org/ns#"
   xmlns:rdf="http://www.w3.org/1999/02/22-rdf-syntax-ns#"
   xmlns:svg="http://www.w3.org/2000/svg"
   xmlns="http://www.w3.org/2000/svg"
   xmlns:sodipodi="http://sodipodi.sourceforge.net/DTD/sodipodi-0.dtd"
   xmlns:inkscape="http://www.inkscape.org/namespaces/inkscape"
   version="1.1"
   id="svg865"
   width="400"
   height="200"
   viewBox="0 0 400 200"
   sodipodi:docname="handwriting.svg"
   inkscape:version="1.0.1 (3bc2e813f5, 2020-09-07)">
  <metadata
     id="metadata871">
    <rdf:RDF>
      <cc:Work
         rdf:about="">
        <dc:format>image/svg+xml</dc:format>
        <dc:type
           rdf:resource="http://purl.org/dc/dcmitype/StillImage" />
        <dc:title></dc:title>
      </cc:Work>
    </rdf:RDF>
  </metadata>
  <defs
     id="defs869">
    <inkscape:path-effect
       effect="simplify"
       id="path-effect995"
       is_visible="true"
       lpeversion="1"
       steps="1"
       threshold="0.00243902"
       smooth_angles="360"
       helper_size="0"
       simplify_individual_paths="false"
       simplify_just_coalesce="false" />
    <inkscape:path-effect
       effect="simplify"
       id="path-effect991"
       is_visible="true"
       lpeversion="1"
       steps="1"
       threshold="0.00243902"
       smooth_angles="360"
       helper_size="0"
       simplify_individual_paths="false"
       simplify_just_coalesce="false" />
    <inkscape:path-effect
       effect="simplify"
       id="path-effect987"
       is_visible="true"
       lpeversion="1"
       steps="1"
       threshold="0.00243902"
       smooth_angles="360"
       helper_size="0"
       simplify_individual_paths="false"
       simplify_just_coalesce="false" />
    <inkscape:path-effect
       effect="simplify"
       id="path-effect983"
       is_visible="true"
       lpeversion="1"
       steps="1"
       threshold="0.00243902"
       smooth_angles="360"
       helper_size="0"
       simplify_individual_paths="false"
       simplify_just_coalesce="false" />
    <inkscape:path-effect
       effect="simplify"
       id="path-effect979"
       is_visible="true"
       lpeversion="1"
       steps="1"
       threshold="0.00243902"
       smooth_angles="360"
       helper_size="0"
       simplify_individual_paths="false"
       simplify_just_coalesce="false" />
    <inkscape:path-effect
       effect="simplify"
       id="path-effect975"
       is_visible="true"
       lpeversion="1"
       steps="1"
       threshold="0.00243902"
       smooth_angles="360"
       helper_size="0"
       simplify_individual_paths="false"
       simplify_just_coalesce="false" />
    <inkscape:path-effect
       effect="simplify"
       id="path-effect971"
       is_visible="true"
       lpeversion="1"
       steps="1"
       threshold="0.00243902"
       smooth_angles="360"
       helper_size="0"
       simplify_individual_paths="false"
       simplify_just_coalesce="false" />
  </defs>
  <sodipodi:namedview
     pagecolor="#ffffff"
     bordercolor="#666666"
     borderopacity="1"
     objecttolerance="10"
     gridtolerance="10"
     guidetolerance="10"
     inkscape:pageopacity="0"
     inkscape:pageshadow="2"
     inkscape:window-width="1819"
     inkscape:window-height="1000"
     id="namedview867"
     showgrid="false"
     inkscape:zoom="2.1234062"
     inkscape:cx="247.39022"
     inkscape:cy="113.85766"
     inkscape:window-x="2552"
     inkscape:window-y="285"
     inkscape:window-maximized="0"
     inkscape:current-layer="g873" />
  <g
     inkscape:groupmode="layer"
     inkscape:label="Image"
     id="g873">
    <path
       style="fill:none;stroke:#000000;stroke-width:3.34145;stroke-linecap:round;stroke-linejoin:miter;stroke-miterlimit:4;stroke-dasharray:none;stroke-opacity:1"
       d="m 66.254289,70.176997 c 0.692173,3.668581 1.451273,7.241795 2.372044,10.877788 10.344024,40.847105 -7.912882,-2.034768 12.278757,-14.970542"
       id="path1055" />
    <path
       style="fill:none;stroke:#000000;stroke-width:3.34145;stroke-linecap:round;stroke-linejoin:miter;stroke-miterlimit:4;stroke-dasharray:none;stroke-opacity:1"
       d="m 174.64417,56.444818 c 5.88676,-4.846666 17.13112,-2.36952 22.20646,-7.722652 7.2175,-7.612517 -24.93098,-14.07305 -22.20646,7.722652 2.09705,16.776012 19.92823,19.352534 25.45208,4.852316"
       id="path1063" />
    <path
       style="fill:none;stroke:#000000;stroke-width:3.34145;stroke-linecap:round;stroke-linejoin:miter;stroke-miterlimit:4;stroke-dasharray:none;stroke-opacity:1"
       d="m 229.39806,11.253525 c 3.49919,17.95672 7.55991,36.853763 9.0228,54.625793"
       id="path1067" />
    <path
       style="fill:none;stroke:#000000;stroke-width:3.34145;stroke-linecap:round;stroke-linejoin:miter;stroke-miterlimit:4;stroke-dasharray:none;stroke-opacity:1"
       d="m 247.78041,29.32394 c -14.47504,31.530979 -16.31715,8.620372 3.71719,33.00986"
       id="path1069" />
    <path
       style="fill:none;stroke:#000000;stroke-width:3.34145;stroke-linecap:round;stroke-linejoin:miter;stroke-miterlimit:4;stroke-dasharray:none;stroke-opacity:1"
       d="m 322.77418,3.6726011 c 6.22253,16.4113879 4.02996,34.3825969 7.83716,51.0918129"
       id="path1075" />
    <path
       style="fill:none;stroke:#000000;stroke-width:3.34145;stroke-linecap:round;stroke-linejoin:miter;stroke-miterlimit:4;stroke-dasharray:none;stroke-opacity:1"
       d="m 313.69666,28.946165 c 7.84789,-1.589378 15.69633,-2.054771 23.47448,-3.827029"
       id="path1077" />
    <path
       style="fill:none;stroke:#000000;stroke-width:3.34145;stroke-linecap:round;stroke-linejoin:miter;stroke-miterlimit:4;stroke-dasharray:none;stroke-opacity:1"
       d="m 75.804306,130.89654 c 5.549478,7.37593 10.636492,25.68018 18.651668,26.07289"
       id="path1081" />
    <path
       style="fill:none;stroke:#000000;stroke-width:3.34145;stroke-linecap:round;stroke-linejoin:miter;stroke-miterlimit:4;stroke-dasharray:none;stroke-opacity:1"
       d="m 95.712455,126.52082 c 5.151785,19.32525 -2.578252,36.31871 -8.324544,53.06219"
       id="path1083" />
    <path
       style="fill:none;stroke:#000000;stroke-width:3.34145;stroke-linecap:round;stroke-linejoin:miter;stroke-miterlimit:4;stroke-dasharray:none;stroke-opacity:1"
       d="m 36.41567,136.43382 c 0.950298,4.0948 1.900593,8.18958 2.850891,12.28439 8.483919,36.55691 -4.191233,-6.64679 3.962102,-10.81938 7.155467,-3.66194 12.640385,24.93429 12.540685,24.50468 -6.140561,-26.45943 7.606629,-41.05486 16.258738,-3.77323"
       id="path1085" />
    <path
       style="fill:none;stroke:#000000;stroke-width:3.34145;stroke-linecap:round;stroke-linejoin:miter;stroke-miterlimit:4;stroke-dasharray:none;stroke-opacity:1"
       d="m 172.38844,101.96158 c -44.22331,-34.807694 -60.03213,50.76521 -20.02108,60.74091 14.52407,3.6212 37.89609,-16.07963 25.43112,-28.01002 -0.98471,-0.94245 -23.13407,5.80743 -22.97494,6.25211 0.47653,1.33157 20.18679,-9.02123 22.82426,-7.77396 4.7009,2.22308 5.46551,20.96153 6.42848,25.66941"
       id="path1091" />
    <path
       style="fill:none;stroke:#000000;stroke-width:3.34145;stroke-linecap:round;stroke-linejoin:miter;stroke-miterlimit:4;stroke-dasharray:none;stroke-opacity:1"
       d="m 197.35478,127.69404 c 4.46514,8.60844 3.8408,19.5393 6.82909,27.8897"
       id="path1093" />
    <path
       style="fill:none;stroke:#000000;stroke-width:3.34145;stroke-linecap:round;stroke-linejoin:miter;stroke-miterlimit:4;stroke-dasharray:none;stroke-opacity:1"
       d="m 195.74955,116.83132 c -1.40256,0.27378 -1.79773,0.0205 -2.63333,1.25655 -1.7312,2.56069 0.8582,4.43861 2.83247,3.23414 3.02591,-1.84607 1.73204,-3.83493 -0.19914,-4.49069 z"
       id="path1095"
       sodipodi:nodetypes="cssc" />
    <path
       style="fill:none;stroke:#000000;stroke-width:3.34145;stroke-linecap:round;stroke-linejoin:miter;stroke-miterlimit:4;stroke-dasharray:none;stroke-opacity:1"
       d="m 242.03736,84.127945 c 1.81105,8.2233 4.07526,16.400005 6.40278,24.496765 3.27702,11.39971 4.33351,25.31942 8.1816,36.07242 0.30291,0.84647 -7.49817,-24.89265 2.77621,-28.56945 16.18713,-5.79275 14.05501,16.10109 16.18444,26.51149"
       id="path1101" />
    <path
       style="fill:none;stroke:#000000;stroke-width:3.34145;stroke-linecap:round;stroke-linejoin:miter;stroke-miterlimit:4;stroke-dasharray:none;stroke-opacity:1"
       d="m 279.43899,113.27029 c 2.17874,6.59484 4.70046,14.07818 7.68267,20.88866 3.33809,7.62322 19.17383,2.86157 15.6764,-5.82268 -13.10041,-32.528744 -7.56453,-19.55315 4.31936,5.9695"
       id="path1105"
       sodipodi:nodetypes="cssc" />
    <path
       style="fill:none;stroke:#000000;stroke-width:3.34145;stroke-linecap:round;stroke-linejoin:miter;stroke-miterlimit:4;stroke-dasharray:none;stroke-opacity:1"
       d="m 303.26259,76.521422 c 1.48859,7.209113 3.94358,14.326828 5.59959,21.511008 6.33933,27.50144 -2.10077,-7.347013 4.10188,16.14372 1.18207,4.4767 2.32262,10.25569 3.68417,14.70808 6.38978,20.8951 -15.15525,-30.639769 11.00877,-19.06245 14.21609,6.2905 9.46921,33.86949 -10.59104,19.94175"
       id="path1107"
       sodipodi:nodetypes="cssssc" />
    <path
       style="fill:none;stroke:#000000;stroke-width:3.34145;stroke-linecap:round;stroke-linejoin:miter;stroke-miterlimit:4;stroke-dasharray:none;stroke-opacity:1"
       d="m 271.53023,155.62082 c 18.59022,27.87165 79.31342,29.72548 107.68327,10.84777 -8.44354,-4.28267 -33.81576,-11.4065 -34.29046,-11.50395"
       id="path1109"
       sodipodi:nodetypes="ccc" />
    <path
       style="fill:none;stroke:#000000;stroke-width:3.34145;stroke-linecap:round;stroke-linejoin:miter;stroke-miterlimit:4;stroke-dasharray:none;stroke-opacity:1"
       d="m 379.2135,166.46859 c -3.46136,8.61888 -11.18197,19.60344 -17.04614,29.1413"
       id="path1115" />
    <path
       style="fill:none;stroke:#000000;stroke-width:3.34145;stroke-linecap:round;stroke-linejoin:miter;stroke-miterlimit:4;stroke-dasharray:none;stroke-opacity:1"
       d="M 48.803111,38.079014 C 7.7890104,17.685746 4.7764555,91.826877 37.453667,102.74864 70.046403,113.64214 62.744408,50.333174 48.803111,38.079014 Z"
       id="path1117" />
    <path
       style="fill:none;stroke:#000000;stroke-width:3.34145;stroke-linecap:round;stroke-linejoin:miter;stroke-miterlimit:4;stroke-dasharray:none;stroke-opacity:1"
       d="m 219.22882,91.406045 c 7.24483,35.924695 5.22942,39.614885 10.18388,58.647995"
       id="path1075-3"
       sodipodi:nodetypes="cc" />
    <path
       style="fill:none;stroke:#000000;stroke-width:3.34145;stroke-linecap:round;stroke-linejoin:miter;stroke-miterlimit:4;stroke-dasharray:none;stroke-opacity:1"
       d="m 207.4332,120.41743 c 10.1978,-1.82444 20.39632,-2.35864 30.5035,-4.39301"
       id="path1077-3" />
    <path
       style="fill:none;stroke:#000000;stroke-width:3.34145;stroke-linecap:round;stroke-linejoin:miter;stroke-miterlimit:4;stroke-dasharray:none;stroke-opacity:1"
       d="m 271.02849,34.030738 c -19.53299,-5.430022 -19.41913,22.641025 -3.96563,24.962557 15.41354,2.315532 10.71415,-21.113586 3.96563,-24.962557 z"
       id="path1117-2" />
    <path
       style="fill:none;stroke:#000000;stroke-width:3.34145;stroke-linecap:round;stroke-linejoin:miter;stroke-miterlimit:4;stroke-dasharray:none;stroke-opacity:1"
       d="m 287.42716,32.385498 c 1.03382,5.945689 2.24977,12.698781 3.95164,18.932869 1.90498,6.978044 16.23757,4.919468 14.33189,-2.990621 -7.13818,-29.628996 -4.02214,-17.77029 2.96889,5.683162"
       id="path1105-4"
       sodipodi:nodetypes="cssc" />
    <path
       style="fill:none;stroke:#000000;stroke-width:3.34145;stroke-linecap:round;stroke-linejoin:miter;stroke-miterlimit:4;stroke-dasharray:none;stroke-opacity:1"
       d="m 225.12659,42.334117 c -18.13674,-13.825113 -21.02219,12.147621 -12.20848,21.260939 7.52381,7.779595 18.35724,-2.585689 15.61185,-10.083438"
       id="path1059-8" />
    <path
       style="fill:none;stroke:#000000;stroke-width:3.34145;stroke-linecap:round;stroke-linejoin:miter;stroke-miterlimit:4;stroke-dasharray:none;stroke-opacity:1"
       d="m 141.78139,21.98613 c 1.2588,7.446271 2.93514,14.873252 4.67338,22.231847 2.44737,10.360405 2.73701,22.865573 5.73924,32.675633 0.23631,0.772239 -5.65792,-22.640139 3.93687,-25.421885 15.11642,-4.382599 12.09525,15.098903 13.53916,24.517549"
       id="path1101-6" />
    <path
       style="fill:none;stroke:#000000;stroke-width:3.69984;stroke-linecap:round;stroke-linejoin:miter;stroke-miterlimit:4;stroke-dasharray:none;stroke-opacity:1"
       d="m 133.42283,55.851627 c -20.08205,-15.307974 -23.27699,13.450556 -13.51795,23.541354 8.33082,8.614024 20.32622,-2.863026 17.28636,-11.164972"
       id="path1059-8-1" />
  </g>
</svg>
